<svg width="21" height="22" viewBox="0 0 21 22" fill="none" xmlns="http://www.w3.org/2000/svg">
<path fill-rule="evenodd" clip-rule="evenodd" d="M19.5099 1.58002C18.9487 1.02336 18.1904 0.710709 17.3999 0.710022C16.7152 0.712249 16.0518 0.948672 15.5199 1.38002L6.14992 9.00002L5.99992 9.15002C4.69395 10.4448 4.40424 12.4483 5.28992 14.06C4.92656 13.9492 4.54972 13.8886 4.16992 13.88C1.96078 13.88 0.169922 15.6709 0.169922 17.88V20.38C0.169922 21.2084 0.841495 21.88 1.66992 21.88H4.16992C5.55853 21.8724 6.84384 21.1452 7.56546 19.9588C8.28709 18.7724 8.34177 17.2966 7.70992 16.06C8.1096 16.195 8.5281 16.2658 8.94992 16.27C10.0575 16.2775 11.1211 15.8376 11.8999 15.05L11.9999 14.94L19.6699 5.57002C20.6381 4.39253 20.5692 2.67621 19.5099 1.58002ZM4.20992 20.38H1.70992V17.88C1.70992 16.4993 2.82921 15.38 4.20992 15.38C5.59063 15.38 6.70992 16.4993 6.70992 17.88C6.70992 19.2607 5.59063 20.38 4.20992 20.38ZM10.8799 14L18.5499 4.62002C19.0201 4.03111 18.9727 3.18297 18.4398 2.65012C17.907 2.11727 17.0588 2.06987 16.4699 2.54002L7.09992 10.21C6.05334 11.2538 6.0511 12.9484 7.09492 13.995C8.13874 15.0416 9.83334 15.0438 10.8799 14Z" fill="black"/>
<path d="M11.1999 8.83002L8.19992 11.83C7.90747 12.1228 7.90747 12.5972 8.19992 12.89C8.49274 13.1825 8.9671 13.1825 9.25992 12.89L12.2599 9.89002C12.4606 9.70305 12.5432 9.42147 12.4753 9.15573C12.4074 8.89 12.1999 8.6825 11.9342 8.61464C11.6685 8.54677 11.3869 8.62937 11.1999 8.83002Z" fill="black"/>
</svg>
