<svg width="20" height="20" viewBox="0 0 20 20" fill="none" xmlns="http://www.w3.org/2000/svg">
<path fill-rule="evenodd" clip-rule="evenodd" d="M5.79007 13.27L6.52007 9.85999C6.62635 9.38612 6.86574 8.95245 7.21007 8.60999L13.8801 1.99999C14.5565 1.31097 15.4748 0.912773 16.4401 0.88999C17.1681 0.879559 17.8701 1.16036 18.3901 1.66999C19.5263 3.01246 19.3796 5.01721 18.0601 6.17999L11.3901 12.85C11.0476 13.1943 10.6139 13.4337 10.1401 13.54L6.73007 14.27H6.54007C6.29078 14.2795 6.05268 14.1661 5.903 13.9665C5.75332 13.767 5.71111 13.5066 5.79007 13.27ZM8.27007 9.67999C8.12996 9.81577 8.03263 9.98958 7.99007 10.18L7.50007 12.51L9.83007 12.01C10.0205 11.9674 10.1943 11.8701 10.3301 11.73L17.0001 5.05999C17.7308 4.47501 17.8758 3.42047 17.3301 2.65999C17.0911 2.4317 16.7704 2.30916 16.4401 2.31999C15.8706 2.34286 15.3326 2.58679 14.9401 2.99999L8.27007 9.67999Z" fill="black"/>
<path d="M17.9101 8.92999C17.4981 8.93538 17.1655 9.26803 17.1601 9.67999V15.37C17.1735 16.1743 16.8633 16.9502 16.2993 17.5237C15.7352 18.0972 14.9645 18.4201 14.1601 18.42H4.63008C2.96745 18.3874 1.63519 17.0329 1.63008 15.37V5.87999C1.65738 4.21508 3.01494 2.87977 4.68008 2.87999H10.3701C10.7843 2.87999 11.1201 2.5442 11.1201 2.12999C11.1201 1.71578 10.7843 1.37999 10.3701 1.37999H4.63008C2.13658 1.37984 0.107479 3.38664 0.0800781 5.87999V15.37C0.0800781 17.8829 2.11718 19.92 4.63008 19.92H14.1201C16.6291 19.9145 18.6601 17.879 18.6601 15.37V9.67999C18.6547 9.26803 18.322 8.93538 17.9101 8.92999Z" fill="black"/>
</svg>
